HIERARCHY
ROOT Hips
{
	OFFSET 0.000000 0.000000 0.000000
	CHANNELS 6 Xposition Yposition Zposition Zrotation Yrotation Xrotation 
	JOINT LHipJoint
	{
		OFFSET 0.000000 0.000000 0.000000
		CHANNELS 3 Zrotation Yrotation Xrotation
		JOINT LeftUpLeg
		{
			OFFSET 1.363060 -1.794630 0.839290
			CHANNELS 3 Zrotation Yrotation Xrotation
			JOINT LeftLeg
			{
				OFFSET 2.448110 -6.726130 0.000000
				CHANNELS 3 Zrotation Yrotation Xrotation
				JOINT LeftFoot
				{
					OFFSET 2.562200 -7.039590 0.000000
					CHANNELS 3 Zrotation Yrotation Xrotation
					JOINT LeftToeBase
					{
						OFFSET 0.157640 -0.433110 2.322550
						CHANNELS 3 Zrotation Yrotation Xrotation
						End Site
						{
							OFFSET 0.000000 0.000000 0.000000
						}
					}
				}
			}
		}
	}
	JOINT RHipJoint
	{
		OFFSET 0.000000 0.000000 0.000000
		CHANNELS 3 Zrotation Yrotation Xrotation
		JOINT RightUpLeg
		{
			OFFSET -1.305520 -1.794630 0.839290
			CHANNELS 3 Zrotation Yrotation Xrotation
			JOINT RightLeg
			{
				OFFSET -2.542530 -6.985550 0.000000
				CHANNELS 3 Zrotation Yrotation Xrotation
				JOINT RightFoot
				{
					OFFSET -2.568260 -7.056230 0.000000
					CHANNELS 3 Zrotation Yrotation Xrotation
					JOINT RightToeBase
					{
						OFFSET -0.164730 -0.452590 2.363150
						CHANNELS 3 Zrotation Yrotation Xrotation
						End Site
						{
							OFFSET 0.000000 0.000000 0.000000
						}
					}
				}
			}
		}
	}
	JOINT LowerBack
	{
		OFFSET 0.000000 0.000000 0.000000
		CHANNELS 3 Zrotation Yrotation Xrotation
		JOINT Spine
		{
			OFFSET 0.028270 2.035590 -0.193380
			CHANNELS 3 Zrotation Yrotation Xrotation
			JOINT Spine1
			{
				OFFSET 0.056720 2.048850 -0.042750
				CHANNELS 3 Zrotation Yrotation Xrotation
				JOINT Neck
				{
					OFFSET 0.000000 0.000000 0.000000
					CHANNELS 3 Zrotation Yrotation Xrotation
					JOINT Neck1
					{
						OFFSET -0.054170 1.746240 0.172020
						CHANNELS 3 Zrotation Yrotation Xrotation
						JOINT Head
						{
							OFFSET 0.104070 1.761360 -0.123970
							CHANNELS 3 Zrotation Yrotation Xrotation
							End Site
							{
								OFFSET 0.000000 0.000000 0.000000
							}
						}
					}
				}
				JOINT LeftShoulder
				{
					OFFSET 0.000000 0.000000 0.000000
					CHANNELS 3 Zrotation Yrotation Xrotation
					JOINT LeftArm
					{
						OFFSET 3.362410 1.200890 -0.311210
						CHANNELS 3 Zrotation Yrotation Xrotation
						JOINT LeftForeArm
						{
							OFFSET 4.983000 -0.000000 -0.000000
							CHANNELS 3 Zrotation Yrotation Xrotation
							JOINT LeftHand
							{
								OFFSET 3.483560 -0.000000 -0.000000
								CHANNELS 3 Zrotation Yrotation Xrotation
								JOINT LeftFingerBase
								{
									OFFSET 0.000000 0.000000 0.000000
									CHANNELS 3 Zrotation Yrotation Xrotation
									JOINT LeftHandIndex1
									{
										OFFSET 0.715260 -0.000000 -0.000000
										CHANNELS 3 Zrotation Yrotation Xrotation
										End Site
										{
											OFFSET 0.000000 0.000000 0.000000
										}
									}
								}
								JOINT LThumb
								{
									OFFSET 0.000000 0.000000 0.000000
									CHANNELS 3 Zrotation Yrotation Xrotation
									End Site
									{
										OFFSET 0.000000 0.000000 0.000000
									}
								}
							}
						}
					}
				}
				JOINT RightShoulder
				{
					OFFSET 0.000000 0.000000 0.000000
					CHANNELS 3 Zrotation Yrotation Xrotation
					JOINT RightArm
					{
						OFFSET -3.136600 1.374050 -0.404650
						CHANNELS 3 Zrotation Yrotation Xrotation
						JOINT RightForeArm
						{
							OFFSET -5.241900 -0.000000 -0.000000
							CHANNELS 3 Zrotation Yrotation Xrotation
							JOINT RightHand
							{
								OFFSET -3.444170 -0.000000 -0.000000
								CHANNELS 3 Zrotation Yrotation Xrotation
								JOINT RightFingerBase
								{
									OFFSET 0.000000 0.000000 0.000000
									CHANNELS 3 Zrotation Yrotation Xrotation
									JOINT RightHandIndex1
									{
										OFFSET -0.622530 -0.000000 -0.000000
										CHANNELS 3 Zrotation Yrotation Xrotation
										End Site
										{
											OFFSET 0.000000 0.000000 0.000000
										}
									}
								}
								JOINT RThumb
								{
									OFFSET 0.000000 0.000000 0.000000
									CHANNELS 3 Zrotation Yrotation Xrotation
									End Site
									{
										OFFSET 0.000000 0.000000 0.000000
									}
								}
							}
						}
					}
				}
			}
		}
	}
}
MOTION
Frames: 8
Frame Time: 0.008333
4.403285 17.362878 1.180830 13.854729 -85.500288 8.934382 -10.631515 0.466153 -0.308861 -9.379378 6.605585 -22.277923 -2.485207 -1.374281 -4.918968 0.753552 7.955281 4.826705 2.296200 -0.000000 -39.398200 9.823638 0.509669 -1.086900 2.503504 -7.381969 -18.806164 2.306450 1.498016 -4.140417 -1.038764 -7.904085 7.309820 -2.955300 -0.000000 -63.426600 2.036463 -2.766833 3.189275 0.202923 -2.745850 -2.500490 -4.490161 -2.741414 -0.828077 10.676652 -10.545465 -4.249114 -3.512979 -0.286830 0.781268 0.000000 0.000000 0.000000 1.414351 -1.843996 -0.684295 -78.427927 9.209082 22.584958 179.993440 -77.734043 179.994999 3.319328 7.299262 0.201795 0.059305 0.235272 0.000000 0.000000 0.000000 0.000000 0.000000 0.000000 0.000000 15.035076 -9.249733 3.012037 55.189671 23.186806 50.355434 179.542870 86.498374 179.987048 -3.647437 -0.146163 -0.001769 0.249465 -0.266783 -0.000000 0.000000 0.000000 0.000000 0.000000 0.000000 0.000000 
4.405095 17.364013 1.172216 12.457881 -83.958374 10.162086 -10.673234 0.440921 -0.133514 -9.191927 5.771692 -22.169060 -2.465445 -1.364673 -4.938068 0.698733 7.493659 5.159728 2.214100 0.000000 -39.682000 9.788207 0.466976 -1.275531 2.603903 -8.174945 -18.330345 2.274761 1.491394 -4.112471 -1.168496 -8.580205 7.047066 -3.113400 -0.000000 -63.162600 1.847500 -2.645465 3.189810 0.187770 -2.618723 -2.481424 -4.325185 -2.616870 -0.739782 10.468847 -10.352749 -4.185851 -3.485092 -0.285518 0.796522 0.000000 0.000000 0.000000 1.434495 -1.786924 -0.713424 -78.090388 8.809646 23.984884 179.996076 -77.672465 179.997687 2.963270 7.389355 0.181432 0.068610 0.233874 0.000000 0.000000 0.000000 0.000000 0.000000 0.000000 0.000000 14.892418 -9.054711 3.208715 53.754121 24.478270 50.750286 179.543859 86.432638 179.985899 -3.634311 -0.816585 0.021602 0.252871 -0.246902 -0.000000 0.000000 0.000000 0.000000 0.000000 0.000000 0.000000 
4.405878 17.365172 1.162545 11.522589 -82.437436 10.907338 -10.699837 0.421708 0.041795 -9.010858 4.975463 -22.046359 -2.450780 -1.357047 -4.952872 0.643113 7.034677 5.491346 2.129700 0.000000 -39.967200 9.768054 0.417097 -1.443838 2.698334 -8.936662 -17.851381 2.239588 1.481736 -4.077955 -1.299441 -9.255117 6.791843 -3.267500 -0.000000 -62.894000 1.663369 -2.517350 3.165942 0.177702 -2.485544 -2.463494 -4.138438 -2.486937 -0.639895 10.212301 -10.117920 -4.096390 -3.446320 -0.283766 0.819354 0.000000 0.000000 0.000000 1.441133 -1.735504 -0.744873 -77.689001 8.315975 25.407042 179.998737 -77.592846 179.999986 2.668033 7.512818 0.165381 0.075915 0.231738 -0.000000 0.000000 0.000000 0.000000 0.000000 0.000000 0.000000 14.655281 -8.817713 3.418652 52.198580 25.919654 51.131888 179.546946 86.382184 179.983866 -3.548857 -1.499566 0.044548 0.253722 -0.225981 -0.000000 0.000000 0.000000 0.000000 0.000000 0.000000 0.000000 
4.405569 17.366509 1.151912 10.860864 -80.965408 11.356037 -10.715946 0.408868 0.214920 -8.840085 4.228124 -21.905492 -2.440469 -1.350907 -4.964467 0.588253 6.589425 5.818418 2.045400 0.000001 -40.245201 9.759098 0.360240 -1.589750 2.781900 -9.653042 -17.372684 2.201257 1.469054 -4.032811 -1.429615 -9.919951 6.548386 -3.416300 0.000001 -62.623300 1.471891 -2.381203 3.117867 0.170069 -2.344151 -2.448079 -3.931884 -2.349502 -0.535187 9.907247 -9.824105 -3.972437 -3.398598 -0.281814 0.852089 0.000000 0.000000 0.000000 1.432661 -1.713187 -0.779347 -77.238974 7.768800 26.813021 179.999119 -77.471894 -179.998197 2.443606 7.642704 0.153441 0.081406 0.229423 -0.000000 0.000000 0.000000 0.000000 0.000000 0.000000 0.000000 14.328630 -8.523342 3.644698 50.479881 27.508216 51.478005 179.551791 86.316316 179.983267 -3.383298 -2.073491 0.061379 0.251572 -0.207032 -0.000000 0.000000 0.000000 0.000000 0.000000 0.000000 0.000000 
4.404529 17.367956 1.140455 10.361151 -79.565507 11.616375 -10.724636 0.400964 0.382112 -8.677338 3.536918 -21.738554 -2.432914 -1.345883 -4.974450 0.536180 6.170332 6.133489 1.963500 -0.000000 -40.512999 9.758152 0.296922 -1.713070 2.852657 -10.307656 -16.892492 2.159631 1.453108 -3.974921 -1.558058 -10.570313 6.317314 -3.558901 0.000000 -62.355500 1.273550 -2.234957 3.050163 0.165654 -2.192093 -2.432855 -3.701995 -2.202094 -0.420686 9.535664 -9.456163 -3.818527 -3.335385 -0.279145 0.893260 0.000000 0.000000 0.000000 1.412148 -1.660473 -0.812451 -76.751443 7.112308 28.236027 179.999648 -77.341100 -179.996993 2.289685 7.758149 0.145520 0.084368 0.227664 -0.000000 0.000000 0.000000 0.000000 0.000000 0.000000 0.000000 13.859614 -8.147355 3.873293 48.612400 29.207059 51.771446 179.558656 86.236554 179.983169 -3.162450 -2.414783 0.068196 0.246165 -0.193100 -0.000000 0.000000 0.000000 0.000000 0.000000 0.000000 0.000000 
4.402912 17.369526 1.128206 9.974857 -78.258509 11.735313 -10.727139 0.397146 0.539706 -8.524563 2.907483 -21.539783 -2.427203 -1.341775 -4.982703 0.488300 5.790213 6.432052 1.887500 -0.000000 -40.764300 9.764048 0.228238 -1.813708 2.906759 -10.888647 -16.411716 2.114503 1.433431 -3.902550 -1.683357 -11.198574 6.099379 -3.693900 0.000000 -62.093900 1.067042 -2.077756 2.967422 0.164327 -2.028014 -2.416754 -3.448328 -2.043345 -0.296541 9.087995 -9.013311 -3.638818 -3.254589 -0.275587 0.941651 0.000000 0.000000 0.000000 1.376258 -1.562562 -0.842704 -76.236391 6.342702 29.669758 -179.999003 -77.199395 -179.996385 2.195344 7.842748 0.140821 0.084968 0.226858 -0.000000 0.000000 0.000000 0.000000 0.000000 0.000000 0.000000 13.229074 -7.687010 4.098681 46.576735 30.999417 52.009625 179.568612 86.135496 179.984347 -2.927781 -2.444692 0.064405 0.238017 -0.186234 -0.000000 0.000000 0.000000 0.000000 0.000000 0.000000 0.000000 
4.400501 17.371404 1.115203 9.679852 -77.060264 11.738625 -10.724142 0.397491 0.685851 -8.386445 2.347052 -21.308312 -2.423527 -1.339039 -4.991986 0.445629 5.455908 6.715195 1.819700 -0.000000 -40.989800 9.776757 0.154610 -1.890290 2.940831 -11.390117 -15.935513 2.066092 1.409881 -3.815659 -1.803734 -11.795801 5.898160 -3.819900 0.000000 -61.841400 0.846850 -1.909450 2.870534 0.163618 -1.851174 -2.402320 -3.177578 -1.872495 -0.173812 8.573738 -8.484275 -3.429817 -3.161948 -0.271625 0.998346 0.000000 0.000000 0.000000 1.326113 -1.454746 -0.870280 -75.706034 5.516666 31.070170 -179.998648 -77.019035 -179.996184 2.141764 7.887448 0.138131 0.084305 0.227052 -0.000000 0.000000 0.000000 0.000000 0.000000 0.000000 0.000000 12.473161 -7.135467 4.322574 44.302526 32.847476 52.169691 179.579009 85.973907 179.986538 -2.681327 -2.152673 0.051806 0.226896 -0.187076 -0.000000 0.000000 0.000000 0.000000 0.000000 0.000000 0.000000 
4.397427 17.373587 1.101436 9.457710 -75.980760 11.647163 -10.716773 0.400670 0.817921 -8.262496 1.855126 -21.040651 -2.420928 -1.337649 -5.004758 0.409237 5.175952 6.981176 1.762600 0.000000 -41.186800 9.795112 0.077267 -1.944580 2.953689 -11.806815 -15.462669 2.014430 1.382623 -3.717888 -1.918446 -12.358574 5.713872 -3.936500 -0.000000 -61.600500 0.619362 -1.728765 2.764827 0.164593 -1.660346 -2.388007 -2.890080 -1.688259 -0.050005 7.980908 -7.877340 -3.203719 -3.053775 -0.266897 1.059929 0.000000 0.000000 0.000000 1.257915 -1.300830 -0.891861 -75.163923 4.602622 32.453770 -179.996530 -76.817837 -179.996300 2.108300 7.893417 0.136053 0.082437 0.228214 -0.000000 0.000000 0.000000 0.000000 0.000000 0.000000 0.000000 11.564521 -6.496233 4.533393 41.799749 34.707821 52.255656 179.592830 85.769303 179.989817 -2.435164 -1.550148 0.033095 0.212559 -0.195433 -0.000000 0.000000 0.000000 0.000000 0.000000 0.000000 0.000000 
